<svg width="164" height="23" viewBox="0 0 164 23" fill="none" xmlns="http://www.w3.org/2000/svg">
<path d="M28.89 0.849999H32.58L25.11 22H21.96L16.65 6.79L11.31 22H8.16L0.72 0.849999H4.62L9.87 16.6L15.39 0.849999H18.12L23.49 16.69L28.89 0.849999ZM40.222 22.24C38.722 22.24 37.402 21.93 36.262 21.31C35.142 20.69 34.272 19.8 33.652 18.64C33.032 17.48 32.722 16.13 32.722 14.59C32.722 13.05 33.032 11.71 33.652 10.57C34.272 9.41 35.142 8.52 36.262 7.9C37.402 7.28 38.722 6.97 40.222 6.97C41.722 6.97 43.032 7.28 44.152 7.9C45.292 8.52 46.162 9.41 46.762 10.57C47.382 11.71 47.692 13.05 47.692 14.59C47.692 16.13 47.382 17.48 46.762 18.64C46.162 19.8 45.292 20.69 44.152 21.31C43.032 21.93 41.722 22.24 40.222 22.24ZM40.192 19.33C41.412 19.33 42.342 18.93 42.982 18.13C43.622 17.33 43.942 16.15 43.942 14.59C43.942 13.05 43.622 11.88 42.982 11.08C42.342 10.26 41.422 9.85 40.222 9.85C39.022 9.85 38.092 10.26 37.432 11.08C36.792 11.88 36.472 13.05 36.472 14.59C36.472 16.15 36.792 17.33 37.432 18.13C38.072 18.93 38.992 19.33 40.192 19.33ZM57.4779 22.24C55.9779 22.24 54.6579 21.93 53.5179 21.31C52.3979 20.69 51.5279 19.8 50.9079 18.64C50.2879 17.48 49.9779 16.13 49.9779 14.59C49.9779 13.05 50.2879 11.71 50.9079 10.57C51.5279 9.41 52.3979 8.52 53.5179 7.9C54.6579 7.28 55.9779 6.97 57.4779 6.97C58.9779 6.97 60.2879 7.28 61.4079 7.9C62.5479 8.52 63.4179 9.41 64.0179 10.57C64.6379 11.71 64.9479 13.05 64.9479 14.59C64.9479 16.13 64.6379 17.48 64.0179 18.64C63.4179 19.8 62.5479 20.69 61.4079 21.31C60.2879 21.93 58.9779 22.24 57.4779 22.24ZM57.4479 19.33C58.6679 19.33 59.5979 18.93 60.2379 18.13C60.8779 17.33 61.1979 16.15 61.1979 14.59C61.1979 13.05 60.8779 11.88 60.2379 11.08C59.5979 10.26 58.6779 9.85 57.4779 9.85C56.2779 9.85 55.3479 10.26 54.6879 11.08C54.0479 11.88 53.7279 13.05 53.7279 14.59C53.7279 16.15 54.0479 17.33 54.6879 18.13C55.3279 18.93 56.2479 19.33 57.4479 19.33ZM77.7038 10.09L75.5138 10.3C73.0338 10.56 71.7938 11.82 71.7938 14.08V22H68.0438V7.33H71.6138V9.91C72.3738 8.15 73.9438 7.19 76.3238 7.03L77.4638 6.94L77.7038 10.09ZM94.2281 22H89.5781L83.2781 15.31V22H79.5281V0.849999H83.2781V13.75L89.1881 7.36H93.7481L87.1481 14.38L94.2281 22ZM105.272 10.09L103.082 10.3C100.602 10.56 99.3621 11.82 99.3621 14.08V22H95.6121V7.33H99.1821V9.91C99.9421 8.15 101.512 7.19 103.892 7.03L105.032 6.94L105.272 10.09ZM113.494 22.24C111.994 22.24 110.674 21.93 109.534 21.31C108.414 20.69 107.544 19.8 106.924 18.64C106.304 17.48 105.994 16.13 105.994 14.59C105.994 13.05 106.304 11.71 106.924 10.57C107.544 9.41 108.414 8.52 109.534 7.9C110.674 7.28 111.994 6.97 113.494 6.97C114.994 6.97 116.304 7.28 117.424 7.9C118.564 8.52 119.434 9.41 120.034 10.57C120.654 11.71 120.964 13.05 120.964 14.59C120.964 16.13 120.654 17.48 120.034 18.64C119.434 19.8 118.564 20.69 117.424 21.31C116.304 21.93 114.994 22.24 113.494 22.24ZM113.464 19.33C114.684 19.33 115.614 18.93 116.254 18.13C116.894 17.33 117.214 16.15 117.214 14.59C117.214 13.05 116.894 11.88 116.254 11.08C115.614 10.26 114.694 9.85 113.494 9.85C112.294 9.85 111.364 10.26 110.704 11.08C110.064 11.88 109.744 13.05 109.744 14.59C109.744 16.15 110.064 17.33 110.704 18.13C111.344 18.93 112.264 19.33 113.464 19.33ZM130.749 22.24C129.249 22.24 127.929 21.93 126.789 21.31C125.669 20.69 124.799 19.8 124.179 18.64C123.559 17.48 123.249 16.13 123.249 14.59C123.249 13.05 123.559 11.71 124.179 10.57C124.799 9.41 125.669 8.52 126.789 7.9C127.929 7.28 129.249 6.97 130.749 6.97C132.249 6.97 133.559 7.28 134.679 7.9C135.819 8.52 136.689 9.41 137.289 10.57C137.909 11.71 138.219 13.05 138.219 14.59C138.219 16.13 137.909 17.48 137.289 18.64C136.689 19.8 135.819 20.69 134.679 21.31C133.559 21.93 132.249 22.24 130.749 22.24ZM130.719 19.33C131.939 19.33 132.869 18.93 133.509 18.13C134.149 17.33 134.469 16.15 134.469 14.59C134.469 13.05 134.149 11.88 133.509 11.08C132.869 10.26 131.949 9.85 130.749 9.85C129.549 9.85 128.619 10.26 127.959 11.08C127.319 11.88 126.999 13.05 126.999 14.59C126.999 16.15 127.319 17.33 127.959 18.13C128.599 18.93 129.519 19.33 130.719 19.33ZM158.745 6.97C160.405 6.97 161.645 7.47 162.465 8.47C163.285 9.45 163.695 10.96 163.695 13V22H159.945V13.15C159.945 12.03 159.755 11.22 159.375 10.72C158.995 10.2 158.385 9.94 157.545 9.94C156.545 9.94 155.765 10.28 155.205 10.96C154.645 11.64 154.365 12.59 154.365 13.81V22H150.615V13.15C150.615 12.03 150.425 11.22 150.045 10.72C149.685 10.2 149.075 9.94 148.215 9.94C147.235 9.94 146.465 10.28 145.905 10.96C145.345 11.64 145.065 12.59 145.065 13.81V22H141.315V7.33H144.975V9.4C145.415 8.6 146.025 8 146.805 7.6C147.585 7.18 148.475 6.97 149.475 6.97C151.695 6.97 153.165 7.89 153.885 9.73C154.345 8.87 155.005 8.2 155.865 7.72C156.725 7.22 157.685 6.97 158.745 6.97Z" fill="white"/>
</svg>
